<svg width="24" height="25" viewBox="0 0 24 25" fill="none" xmlns="http://www.w3.org/2000/svg">
<path fill-rule="evenodd" clip-rule="evenodd" d="M7.14 2.75004C5.223 2.75004 3.5925 3.43854 2.4495 4.69404C1.317 5.93604 0.75 7.63704 0.75 9.51954C0.75 12.7895 2.415 15.395 4.53 17.4215C6.636 19.439 9.285 20.9735 11.478 22.121C11.6383 22.2051 11.8164 22.2493 11.9974 22.2498C12.1783 22.2503 12.3568 22.2072 12.5175 22.124C14.712 20.9885 17.3595 19.442 19.467 17.414C21.582 15.3815 23.25 12.767 23.25 9.51954C23.25 7.62954 22.68 5.93004 21.546 4.68804C20.4015 3.43554 18.771 2.74854 16.86 2.74854C15.246 2.74854 13.911 3.34704 12.8955 4.47504C12.5486 4.86604 12.2481 5.29591 12 5.75604C11.7519 5.29591 11.4514 4.86604 11.1045 4.47504C10.089 3.34704 8.754 2.75004 7.14 2.75004Z" fill="#FFC3C3"/>
</svg>
