<svg width="24" height="25" viewBox="0 0 24 25" fill="none" xmlns="http://www.w3.org/2000/svg">
<path d="M12 9.005C10.065 9.005 8.505 10.58 8.505 12.5C8.505 14.42 10.08 15.995 12 15.995C13.92 15.995 15.495 14.42 15.495 12.5C15.495 10.58 13.92 9.005 12 9.005ZM22.5 12.5C22.5 11.045 22.5 9.62 22.425 8.165C22.35 6.485 21.96 4.985 20.73 3.77C19.5 2.54 18.015 2.15 16.335 2.075C14.88 2 13.455 2 12 2C10.545 2 9.12 2 7.665 2.075C5.985 2.15 4.485 2.54 3.27 3.77C2.04 5 1.65 6.485 1.575 8.165C1.5 9.62 1.5 11.045 1.5 12.5C1.5 13.955 1.5 15.38 1.575 16.835C1.65 18.515 2.04 20.015 3.27 21.23C4.5 22.46 5.985 22.85 7.665 22.925C9.12 23 10.545 23 12 23C13.455 23 14.88 23 16.335 22.925C18.015 22.85 19.515 22.46 20.73 21.23C21.96 20 22.35 18.515 22.425 16.835C22.515 15.395 22.5 13.955 22.5 12.5ZM12 17.885C9.015 17.885 6.615 15.485 6.615 12.5C6.615 9.515 9.015 7.115 12 7.115C14.985 7.115 17.385 9.515 17.385 12.5C17.385 15.485 14.985 17.885 12 17.885ZM17.61 8.15C16.92 8.15 16.35 7.595 16.35 6.89C16.35 6.185 16.905 5.63 17.61 5.63C18.315 5.63 18.87 6.185 18.87 6.89C18.8738 7.05431 18.8438 7.21764 18.7819 7.36987C18.7199 7.52211 18.6274 7.66 18.51 7.775C18.395 7.89241 18.2571 7.98495 18.1049 8.04687C17.9526 8.1088 17.7893 8.1388 17.625 8.135L17.61 8.15Z" fill="#641E1F"/>
</svg>
