<svg width="24" height="25" viewBox="0 0 24 25" fill="none" xmlns="http://www.w3.org/2000/svg">
<g clip-path="url(#clip0_10_179)">
<path d="M19.9844 16.4375C19.9844 16.2083 19.8698 16.0677 19.6406 16.0156C18.9427 15.8594 18.3281 15.5521 17.7969 15.0938C17.2656 14.6354 16.849 14.0729 16.5469 13.4062C16.474 13.2083 16.4375 13.0781 16.4375 13.0156C16.4375 12.8594 16.5391 12.724 16.7422 12.6094C16.9453 12.4948 17.1693 12.4062 17.4141 12.3438C17.6589 12.2812 17.8828 12.1745 18.0859 12.0234C18.2891 11.8724 18.3906 11.6823 18.3906 11.4531C18.3906 11.2552 18.2943 11.0911 18.1016 10.9609C17.9089 10.8307 17.7083 10.7656 17.5 10.7656C17.375 10.7656 17.2083 10.8073 17 10.8906C16.7917 10.974 16.6302 11.0156 16.5156 11.0156C16.474 11.0156 16.4115 11.0052 16.3281 10.9844C16.3802 9.99479 16.4062 9.40104 16.4062 9.20312C16.4062 8.38021 16.3177 7.78646 16.1406 7.42188C15.7656 6.60938 15.2292 5.97656 14.5312 5.52344C13.8333 5.07031 13.0417 4.84375 12.1562 4.84375C10.0833 4.84375 8.65104 5.70312 7.85938 7.42188C7.68229 7.78646 7.59375 8.38021 7.59375 9.20312C7.59375 9.40104 7.61979 9.99479 7.67188 10.9844C7.63021 11.0052 7.55729 11.0156 7.45312 11.0156C7.32812 11.0156 7.16146 10.9766 6.95312 10.8984C6.74479 10.8203 6.58854 10.7812 6.48438 10.7812C6.26562 10.7812 6.0651 10.8438 5.88281 10.9688C5.70052 11.0938 5.60938 11.2604 5.60938 11.4688C5.60938 11.6875 5.71094 11.8724 5.91406 12.0234C6.11719 12.1745 6.34115 12.2812 6.58594 12.3438C6.83073 12.4062 7.05469 12.4948 7.25781 12.6094C7.46094 12.724 7.5625 12.8594 7.5625 13.0156C7.5625 13.0781 7.52604 13.2083 7.45312 13.4062C6.78646 14.8438 5.75521 15.7135 4.35938 16.0156C4.13021 16.0677 4.01562 16.2083 4.01562 16.4375C4.01562 16.9167 4.72917 17.2708 6.15625 17.5C6.17708 17.5521 6.20833 17.6875 6.25 17.9062C6.29167 18.125 6.35156 18.2839 6.42969 18.3828C6.50781 18.4818 6.63021 18.5312 6.79688 18.5312C6.92188 18.5312 7.11719 18.5078 7.38281 18.4609C7.64844 18.4141 7.85417 18.3906 8 18.3906C8.36458 18.3906 8.71354 18.4688 9.04688 18.625C9.38021 18.7812 9.66146 18.9505 9.89062 19.1328C10.1198 19.3151 10.4193 19.4844 10.7891 19.6406C11.1589 19.7969 11.5573 19.875 11.9844 19.875C12.4323 19.875 12.8438 19.7969 13.2188 19.6406C13.5938 19.4844 13.8932 19.3151 14.1172 19.1328C14.3411 18.9505 14.6198 18.7812 14.9531 18.625C15.2865 18.4688 15.6354 18.3906 16 18.3906C16.1458 18.3906 16.3516 18.4115 16.6172 18.4531C16.8828 18.4948 17.0833 18.5156 17.2188 18.5156C17.3854 18.5156 17.5052 18.4635 17.5781 18.3594C17.651 18.2552 17.7083 18.099 17.75 17.8906C17.7917 17.6823 17.8229 17.5521 17.8438 17.5C19.2708 17.2708 19.9844 16.9167 19.9844 16.4375ZM24 12.5C24 14.6771 23.4635 16.6849 22.3906 18.5234C21.3177 20.362 19.862 21.8177 18.0234 22.8906C16.1849 23.9635 14.1771 24.5 12 24.5C9.82292 24.5 7.8151 23.9635 5.97656 22.8906C4.13802 21.8177 2.68229 20.362 1.60938 18.5234C0.536458 16.6849 0 14.6771 0 12.5C0 10.3229 0.536458 8.3151 1.60938 6.47656C2.68229 4.63802 4.13802 3.18229 5.97656 2.10938C7.8151 1.03646 9.82292 0.5 12 0.5C14.1771 0.5 16.1849 1.03646 18.0234 2.10938C19.862 3.18229 21.3177 4.63802 22.3906 6.47656C23.4635 8.3151 24 10.3229 24 12.5Z" fill="#641E1F"/>
</g>
<defs>
<clipPath id="clip0_10_179">
<rect width="24" height="24" fill="white" transform="translate(0 0.5)"/>
</clipPath>
</defs>
</svg>
