<svg width="24" height="25" viewBox="0 0 24 25" fill="none" xmlns="http://www.w3.org/2000/svg">
<path d="M12 2.5C10.0222 2.5 8.08879 3.08649 6.4443 4.1853C4.79981 5.28412 3.51809 6.8459 2.76121 8.67317C2.00433 10.5004 1.8063 12.5111 2.19215 14.4509C2.578 16.3907 3.53041 18.1725 4.92894 19.5711C6.32746 20.9696 8.10929 21.922 10.0491 22.3079C11.9889 22.6937 13.9996 22.4957 15.8268 21.7388C17.6541 20.9819 19.2159 19.7002 20.3147 18.0557C21.4135 16.4112 22 14.4778 22 12.5C21.9974 9.84865 20.9429 7.30665 19.0681 5.43186C17.1934 3.55707 14.6514 2.50265 12 2.5ZM17.939 10.213V10.859C17.939 10.9084 17.9291 10.9574 17.9099 11.0029C17.8907 11.0485 17.8625 11.0897 17.8271 11.1242C17.7917 11.1587 17.7497 11.1858 17.7037 11.2038C17.6576 11.2218 17.6084 11.2303 17.559 11.229C16.5032 11.1542 15.4932 10.7687 14.656 10.121V14.849C14.6559 15.3723 14.5515 15.8903 14.3489 16.3728C14.1463 16.8553 13.8495 17.2925 13.476 17.659C13.0991 18.0346 12.6513 18.3315 12.1586 18.5324C11.6658 18.7333 11.1381 18.8341 10.606 18.829C9.53594 18.8271 8.50893 18.4073 7.744 17.659C7.2574 17.1684 6.9069 16.5596 6.727 15.8924C6.5471 15.2252 6.544 14.5227 6.718 13.854C6.877 13.212 7.198 12.622 7.651 12.141C7.98883 11.7281 8.41468 11.3959 8.8974 11.1687C9.38012 10.9416 9.90751 10.8251 10.441 10.828H11.261V12.531C11.2614 12.5805 11.2512 12.6294 11.2311 12.6746C11.2111 12.7199 11.1816 12.7603 11.1447 12.7932C11.1078 12.8261 11.0643 12.8508 11.0171 12.8656C10.9699 12.8804 10.9201 12.885 10.871 12.879C10.3949 12.736 9.88186 12.7834 9.44004 13.0113C8.99822 13.2392 8.66214 13.6297 8.50265 14.1006C8.34315 14.5714 8.37269 15.0858 8.58505 15.5353C8.79742 15.9847 9.176 16.3342 9.641 16.51C9.911 16.665 10.213 16.756 10.523 16.777C10.763 16.787 11.003 16.757 11.231 16.685C11.6118 16.5568 11.943 16.3129 12.1784 15.9873C12.4138 15.6618 12.5417 15.2708 12.544 14.869V6.254C12.5439 6.20677 12.5531 6.15998 12.571 6.11631C12.589 6.07264 12.6154 6.03294 12.6488 5.9995C12.6821 5.96606 12.7218 5.93953 12.7654 5.92142C12.809 5.90332 12.8558 5.894 12.903 5.894H14.318C14.41 5.89387 14.4986 5.92908 14.5654 5.99234C14.6322 6.05561 14.6721 6.14212 14.677 6.234C14.7288 6.67518 14.869 7.10139 15.0892 7.48714C15.3095 7.87288 15.6053 8.21023 15.959 8.479C16.4371 8.83789 17.0049 9.05796 17.6 9.115C17.6891 9.12262 17.7725 9.16228 17.8346 9.22663C17.8968 9.29098 17.9335 9.37566 17.938 9.465L17.939 10.213Z" fill="#641E1F"/>
</svg>
